<svg xmlns="http://www.w3.org/2000/svg" viewBox="0 0 24 24" width="48" height="48">
  <defs>
    <linearGradient id="gradient" x1="0%" y1="0%" x2="100%" y2="100%">
      <stop offset="0%" stop-color="#6a3093" />
      <stop offset="100%" stop-color="#a044ff" />
    </linearGradient>
  </defs>
  <path d="M7,4.5C7,3.12 8.12,2 9.5,2C10.88,2 12,3.12 12,4.5C12,5.88 10.88,7 9.5,7C8.12,7 7,5.88 7,4.5M16.08,5.82L18.5,3.4L21.21,6.11L19.26,8.05L16.08,5.82M16.08,18.18L19.24,15.96L21.21,17.89L18.5,20.6L16.08,18.18M4.77,7.23L3.3,5.77L5.53,3.53L6.23,4.23L4.77,7.23M18.5,8.5A10,10 0 0,0 8.5,18.5L8.5,21.08L7.08,18.5A10,10 0 0,0 18.5,8.5Z" fill="url(#gradient)"/>
</svg>