<svg xmlns="http://www.w3.org/2000/svg" width="100" height="100" viewBox="0 0 100 100">
  <defs>
    <pattern id="magicPattern" patternUnits="userSpaceOnUse" width="100" height="100">
      <!-- Small stars -->
      <path d="M20,20 L22,15 L24,20 L29,22 L24,24 L22,29 L20,24 L15,22 Z" fill="#f0e6ff" opacity="0.5" />
      <path d="M70,30 L72,25 L74,30 L79,32 L74,34 L72,39 L70,34 L65,32 Z" fill="#f0e6ff" opacity="0.5" />
      <path d="M40,70 L42,65 L44,70 L49,72 L44,74 L42,79 L40,74 L35,72 Z" fill="#f0e6ff" opacity="0.5" />
      <path d="M80,80 L82,75 L84,80 L89,82 L84,84 L82,89 L80,84 L75,82 Z" fill="#f0e6ff" opacity="0.5" />
      
      <!-- Sparkles -->
      <circle cx="10" cy="50" r="1" fill="#f0e6ff" opacity="0.7" />
      <circle cx="30" cy="40" r="1" fill="#f0e6ff" opacity="0.7" />
      <circle cx="50" cy="10" r="1" fill="#f0e6ff" opacity="0.7" />
      <circle cx="60" cy="60" r="1" fill="#f0e6ff" opacity="0.7" />
      <circle cx="90" cy="40" r="1" fill="#f0e6ff" opacity="0.7" />
      <circle cx="75" cy="15" r="1" fill="#f0e6ff" opacity="0.7" />
      <circle cx="25" cy="85" r="1" fill="#f0e6ff" opacity="0.7" />
      <circle cx="85" cy="95" r="1" fill="#f0e6ff" opacity="0.7" />
    </pattern>
  </defs>
  
  <rect width="100" height="100" fill="url(#magicPattern)" />
</svg>